<svg xmlns="http://www.w3.org/2000/svg" width="31.803" height="26.902" viewBox="0 0 31.803 26.902">
  <path id="noun-notification-5633100" d="M54.923,141.119h-6.21a3.653,3.653,0,0,1-1.009,1.913l0,0a3.647,3.647,0,0,1-5.162,0l0,0a3.652,3.652,0,0,1-1.008-1.912h-6.21a.669.669,0,0,1-.669-.669,6.927,6.927,0,0,1,1.561-4.744c.935-1.322,2.011-2.843,2.011-7.747a6.941,6.941,0,0,1,4.311-6.392v-1.775a2.589,2.589,0,0,1,5.177,0v1.774a6.932,6.932,0,0,1,4.312,6.393c0,4.9,1.076,6.425,2.011,7.747a6.927,6.927,0,0,1,1.561,4.744.669.669,0,0,1-.669.669ZM54.8,128.6a.667.667,0,0,1,.967-.919,8.521,8.521,0,0,1,2.094,7.806.668.668,0,0,1-1.3-.308,7.181,7.181,0,0,0-.714-5.158A7.109,7.109,0,0,0,54.8,128.6Zm5.912,7.566a.668.668,0,0,1-1.3-.308,10.058,10.058,0,0,0-2.484-9.278.667.667,0,1,1,.967-.919,11.435,11.435,0,0,1,2.818,10.5Zm-26.237-8.485a.667.667,0,0,1,.967.919,7.1,7.1,0,0,0-1.045,1.421,7.149,7.149,0,0,0-.714,5.158.668.668,0,0,1-1.3.308,8.5,8.5,0,0,1,2.093-7.806ZM30.83,135.86a.668.668,0,1,1-1.3.308,11.4,11.4,0,0,1,2.818-10.5.667.667,0,1,1,.967.919,10.064,10.064,0,0,0-2.484,9.278Zm13.04-14.686a6.892,6.892,0,0,1,2.5,0v-1.382a1.251,1.251,0,0,0-2.5,0v1.382Zm3.471,19.945H42.9a2.318,2.318,0,0,0,4.439,0Zm-11.331-1.338H54.232a5.7,5.7,0,0,0-1.292-3.308c-1.049-1.483-2.256-3.19-2.256-8.514a5.563,5.563,0,0,0-11.125,0c0,5.324-1.207,7.031-2.256,8.514A5.7,5.7,0,0,0,36.009,139.781Z" transform="translate(-29.219 -117.203)" fill="#fff"/>
</svg>
