<svg xmlns="http://www.w3.org/2000/svg" width="106.158" height="96.949" viewBox="0 0 106.158 96.949">
  <path id="Icon_awesome-brain" data-name="Icon awesome-brain" d="M38.332,0A11.79,11.79,0,0,0,26.955,9.116c-.138,0-.254-.046-.415-.046A11.958,11.958,0,0,0,14.747,21.185a11.441,11.441,0,0,0,.323,2.654A15.231,15.231,0,0,0,7.431,44.448,15.284,15.284,0,0,0,9.116,71.541a14.818,14.818,0,0,0-.254,2.677A13.465,13.465,0,0,0,22.109,87.857h0a12.035,12.035,0,0,0,2.215-.231,13.294,13.294,0,0,0,12.531,9.323,13.435,13.435,0,0,0,13.27-13.616h0V12.116A11.958,11.958,0,0,0,38.332,0Zm67.825,57.556a15.2,15.2,0,0,0-7.431-13.085,15.237,15.237,0,0,0-7.062-20.354,4.358,4.358,0,0,0-.577-.254,12.84,12.84,0,0,0,.323-2.654A11.958,11.958,0,0,0,79.618,9.093c-.138,0-.277.046-.415.046A11.811,11.811,0,0,0,67.8.023,11.958,11.958,0,0,0,56.01,12.139V83.31A13.465,13.465,0,0,0,69.256,96.949h0a13.294,13.294,0,0,0,12.531-9.323A12.035,12.035,0,0,0,84,87.857a13.435,13.435,0,0,0,13.27-13.616h0a14.817,14.817,0,0,0-.254-2.677,15.12,15.12,0,0,0,9.093-13.985Z" transform="translate(0)" fill="#ffe08d"/>
</svg>
