<svg id="noun-calendar-5721588" xmlns="http://www.w3.org/2000/svg" width="16.527" height="15.987" viewBox="0 0 16.527 15.987">
  <path id="Path_39471" data-name="Path 39471" d="M378.7,148.51h6.417V149.7H378.7Z" transform="translate(-373.645 -147.062)" fill="#f28627"/>
  <path id="Path_39472" data-name="Path 39472" d="M45.08,163.053H31.45A1.45,1.45,0,0,1,30,161.6V149.962a1.45,1.45,0,0,1,1.448-1.448h1.76v1.193H31.45a.256.256,0,0,0-.256.256V161.6a.256.256,0,0,0,.256.256H45.08a.256.256,0,0,0,.256-.256V149.962a.256.256,0,0,0-.256-.256H43.32v-1.193h1.76a1.45,1.45,0,0,1,1.448,1.448V161.6a1.45,1.45,0,0,1-1.448,1.448Z" transform="translate(-30.002 -147.066)" fill="#f28627"/>
  <path id="Path_39473" data-name="Path 39473" d="M211.729,52.517A1.521,1.521,0,0,1,210.21,51v-.86a1.519,1.519,0,1,1,3.038,0V51A1.521,1.521,0,0,1,211.729,52.517Zm0-2.705a.327.327,0,0,0-.327.327V51a.327.327,0,0,0,.653,0v-.86A.327.327,0,0,0,211.729,49.812Z" transform="translate(-207.598 -48.619)" fill="#f28627"/>
  <path id="Path_39474" data-name="Path 39474" d="M781.729,52.517A1.521,1.521,0,0,1,780.21,51v-.86a1.519,1.519,0,1,1,3.038,0V51A1.521,1.521,0,0,1,781.729,52.517Zm0-2.705a.327.327,0,0,0-.327.327V51a.326.326,0,1,0,.653,0v-.86A.327.327,0,0,0,781.729,49.812Z" transform="translate(-769.334 -48.619)" fill="#f28627"/>
  <path id="Path_39475" data-name="Path 39475" d="M71.133,367.89H86.467v1.193H71.133Z" transform="translate(-70.537 -363.261)" fill="#f28627"/>
</svg>
