<svg xmlns="http://www.w3.org/2000/svg" width="70.614" height="57.457" viewBox="0 0 70.614 57.457">
  <g id="noun-1946984" transform="translate(-30 -135.602)" opacity="0.19">
    <path id="Path_39471" data-name="Path 39471" d="M479.1,140.954a5.329,5.329,0,0,0-5.352-5.352h-6.392A5.329,5.329,0,0,0,462,140.954v3.122h17.1Z" transform="translate(-405.245)" fill="#262261"/>
    <path id="Path_39472" data-name="Path 39472" d="M93.4,331.2H37.21A7.265,7.265,0,0,0,30,338.41v30.921a7.265,7.265,0,0,0,7.21,7.21H93.4a7.265,7.265,0,0,0,7.21-7.21V338.41a7.217,7.217,0,0,0-7.21-7.21Zm-42.963,9.44a6.392,6.392,0,1,1-6.392,6.392A6.392,6.392,0,0,1,50.441,340.64ZM40.481,364.2a14.607,14.607,0,0,1,4.162-10.629,8.915,8.915,0,0,0,5.8,2.23,8.545,8.545,0,0,0,5.8-2.23A14.607,14.607,0,0,1,60.4,364.2c-.074,3.865-19.921,3.865-19.921,0Zm48.389,2.378H69.4a1.784,1.784,0,1,1,0-3.568H88.87a1.809,1.809,0,0,1,1.784,1.784A1.761,1.761,0,0,1,88.87,366.581Zm0-10.927H69.4a1.784,1.784,0,0,1,0-3.568H88.87a1.809,1.809,0,0,1,1.784,1.784A1.761,1.761,0,0,1,88.87,355.655Zm0-10.852H69.4a1.784,1.784,0,0,1,0-3.568H88.87a1.809,1.809,0,0,1,1.784,1.784A1.761,1.761,0,0,1,88.87,344.8Z" transform="translate(0 -183.482)" fill="#262261"/>
  </g>
</svg>
