<svg id="noun-coins-4190832" xmlns="http://www.w3.org/2000/svg" width="17.394" height="20.15" viewBox="0 0 17.394 20.15">
  <path id="Path_39480" data-name="Path 39480" d="M152.156,79.793c3.148,0,5.34-1.263,5.34-2.393S155.3,75,152.156,75s-5.336,1.263-5.336,2.4,2.191,2.4,5.336,2.4Z" transform="translate(-146.82 -75)" fill="#ffc529"/>
  <path id="Path_39481" data-name="Path 39481" d="M157.486,309.56a10.256,10.256,0,0,1-10.676,0V311.5c0,1.137,2.191,2.4,5.336,2.4.122,0,.234-.007.349-.011.572-1.364,2.5-2.4,4.991-2.684Z" transform="translate(-146.81 -305.059)" fill="#ffc529"/>
  <path id="Path_39482" data-name="Path 39482" d="M146.81,520.495v1.939c0,1.133,2.191,2.393,5.336,2.393.061,0,.115-.007.173-.007v-2.828c-.058,0-.112,0-.173,0a8.951,8.951,0,0,1-5.336-1.5Z" transform="translate(-146.81 -511.945)" fill="#ffc529"/>
  <path id="Path_39483" data-name="Path 39483" d="M146.81,731.059V733c0,1.133,2.191,2.389,5.336,2.389.061,0,.115,0,.173,0v-2.835c-.058,0-.112.007-.173.007A8.951,8.951,0,0,1,146.81,731.059Z" transform="translate(-146.81 -718.469)" fill="#ffc529"/>
  <path id="Path_39484" data-name="Path 39484" d="M496.88,899.25v1.939c0,1.133,2.191,2.393,5.34,2.393s5.336-1.263,5.336-2.393V899.25a10.245,10.245,0,0,1-10.676,0Z" transform="translate(-490.162 -883.432)" fill="#ffc529"/>
  <path id="Path_39485" data-name="Path 39485" d="M496.88,688.5v1.939c0,1.133,2.191,2.4,5.34,2.4s5.336-1.267,5.336-2.4V688.5a10.245,10.245,0,0,1-10.676,0Z" transform="translate(-490.162 -676.726)" fill="#ffc529"/>
  <path id="Path_39486" data-name="Path 39486" d="M496.88,456.326c0,1.133,2.191,2.393,5.34,2.393s5.336-1.263,5.336-2.393-2.191-2.4-5.336-2.4S496.88,455.189,496.88,456.326Z" transform="translate(-490.162 -446.658)" fill="#ffc529"/>
</svg>
