<svg xmlns="http://www.w3.org/2000/svg" width="29.304" height="29.541" viewBox="0 0 29.304 29.541">
  <path id="noun-help-1154834" d="M99.446,81.757c-.856-1.349-3.554-5.133-3.718-5.364a1.615,1.615,0,0,0-1.119-.724A1.913,1.913,0,0,0,93.161,76a1.875,1.875,0,0,0-.559,2.567l.625,1.217L90.035,78.5l-3.455-7.14,1.941.987a2.206,2.206,0,0,0,3.06-.724,2.168,2.168,0,0,0,.3-1.678,2.3,2.3,0,0,0-.987-1.415c-.3-.2-5.4-3.62-7.206-4.738a8.138,8.138,0,0,0-7.733-.263,8.53,8.53,0,0,0-4.245,11.089l4.08,8.753a2.232,2.232,0,0,0,2.04,1.283,2.479,2.479,0,0,0,.954-.2,2.031,2.031,0,0,0,.954-.855l.526,1.119a2.118,2.118,0,0,0,1.283,1.152A2.04,2.04,0,0,0,82.3,86a2.626,2.626,0,0,0,.856-.165l.395.132a2.04,2.04,0,0,0-.559.724,1.79,1.79,0,0,0-.033,1.481,1.661,1.661,0,0,0,.987.954l6.877,2.7a6.5,6.5,0,0,0,2.2.395,7.362,7.362,0,0,0,6.614-4.311,6.448,6.448,0,0,0-.2-6.153ZM81.875,84.916a1.175,1.175,0,0,1-.691-.625L79.9,81.56a.115.115,0,0,0-.033-.066L77.137,75.7a.493.493,0,0,0-.888.428l2.731,5.791a1.236,1.236,0,1,1-2.238,1.053l-4.113-8.753a7.5,7.5,0,0,1,3.718-9.773,7.221,7.221,0,0,1,6.811.23c1.81,1.086,7.14,4.673,7.173,4.705a1.266,1.266,0,0,1,.559.79,1.388,1.388,0,0,1-.165.954,1.266,1.266,0,0,1-.79.559,1.388,1.388,0,0,1-.954-.165.032.032,0,0,1-.033-.033l-3.587-1.843a.508.508,0,0,0-.526.033,5.187,5.187,0,0,1-6.252-.461.512.512,0,0,0-.724.724,6.242,6.242,0,0,0,7.239.79l3.455,7.239L87.4,77.414a1.9,1.9,0,0,0-1.678.165l-1.546-3.29a.493.493,0,1,0-.888.428L85,78.335c-.033.033-.033.066-.066.132a1.772,1.772,0,0,0-.165.921l-.494-.2a1.894,1.894,0,0,0-1.579.1l-1.086-2.3a.493.493,0,1,0-.888.428l1.217,2.6a1.616,1.616,0,0,0-.1.23,1.79,1.79,0,0,0-.033,1.481,1.916,1.916,0,0,0,.757.856,2.04,2.04,0,0,0-.559.724,1.79,1.79,0,0,0-.033,1.481l.1.2c-.1-.033-.132-.066-.2-.066Zm16.88,2.567A6.222,6.222,0,0,1,91.187,90.9l-6.877-2.7a.779.779,0,0,1-.428-.428.851.851,0,0,1,.033-.691.967.967,0,0,1,1.185-.526l4.574,1.81a.51.51,0,1,0,.362-.954L85.462,85.64l-.066-.033s-2.238-.888-2.3-.921a.657.657,0,0,1-.263-.329.851.851,0,0,1,.033-.691.975.975,0,0,1,.559-.526c.2-.066,5.2,1.81,5.2,1.81a.51.51,0,0,0,.362-.954l-5.89-2.3a.779.779,0,0,1-.428-.428.851.851,0,0,1,.033-.691,1.34,1.34,0,0,1,.395-.461.951.951,0,0,1,.79-.1l6.844,2.7a.51.51,0,1,0,.362-.954l-4.8-1.909a.794.794,0,0,1-.461-.461.823.823,0,0,1,0-.625.966.966,0,0,1,.329-.395.828.828,0,0,1,.855-.132L94.083,81.2a.5.5,0,0,0,.625-.691s-1.316-2.468-1.316-2.5a.883.883,0,0,1,.3-1.217,1.034,1.034,0,0,1,.691-.165.83.83,0,0,1,.494.329c.033.033,2.83,3.982,3.685,5.331a5.37,5.37,0,0,1,.2,5.2Z" transform="translate(-71.022 -62.68)" fill="#fff"/>
</svg>
