<svg width="19" height="19" viewBox="0 0 19 19" fill="none" xmlns="http://www.w3.org/2000/svg">
<path d="M18.8574 9.24609C18.8574 9.44501 18.7784 9.63577 18.6378 9.77642C18.4971 9.91708 18.3063 9.99609 18.1074 9.99609H10.6074V17.4961C10.6074 17.695 10.5284 17.8858 10.3878 18.0264C10.2471 18.1671 10.0563 18.2461 9.85742 18.2461C9.65851 18.2461 9.46774 18.1671 9.32709 18.0264C9.18644 17.8858 9.10742 17.695 9.10742 17.4961V9.99609H1.60742C1.40851 9.99609 1.21774 9.91708 1.07709 9.77642C0.93644 9.63577 0.857422 9.44501 0.857422 9.24609C0.857422 9.04718 0.93644 8.85642 1.07709 8.71576C1.21774 8.57511 1.40851 8.49609 1.60742 8.49609H9.10742V0.996094C9.10742 0.797181 9.18644 0.606416 9.32709 0.465764C9.46774 0.325112 9.65851 0.246094 9.85742 0.246094C10.0563 0.246094 10.2471 0.325112 10.3878 0.465764C10.5284 0.606416 10.6074 0.797181 10.6074 0.996094V8.49609H18.1074C18.3063 8.49609 18.4971 8.57511 18.6378 8.71576C18.7784 8.85642 18.8574 9.04718 18.8574 9.24609Z" fill="white"/>
</svg>
