<svg xmlns="http://www.w3.org/2000/svg" width="118.618" height="104.152" viewBox="0 0 118.618 104.152">
  <path id="Icon_awesome-seedling" data-name="Icon awesome-seedling" d="M14.83,14.893H0A51.97,51.97,0,0,0,51.894,66.957v33.471a3.714,3.714,0,0,0,3.714,3.714h7.4a3.729,3.729,0,0,0,3.714-3.714V66.957A51.97,51.97,0,0,0,14.83,14.893ZM103.788.014a51.824,51.824,0,0,0-45.34,26.772,59.9,59.9,0,0,1,13.665,25A52.051,52.051,0,0,0,118.618-.01h-14.83Z" transform="translate(0 0.01)" fill="#d57622"/>
</svg>
