<svg xmlns="http://www.w3.org/2000/svg" width="17.485" height="16.707" viewBox="0 0 17.485 16.707">
  <path id="noun-star-6435478" d="M277.058,285.584a.8.8,0,0,1,1.468,0l1.98,4.572a.415.415,0,0,0,.343.249l4.961.471a.8.8,0,0,1,.454,1.4l-3.737,3.3a.416.416,0,0,0-.131.4l1.085,4.863a.8.8,0,0,1-1.187.863L278,299.162a.415.415,0,0,0-.424,0l-4.29,2.535a.8.8,0,0,1-1.187-.863l1.085-4.863a.416.416,0,0,0-.131-.4l-3.737-3.3a.8.8,0,0,1,.453-1.4l4.961-.471a.415.415,0,0,0,.343-.249l1.98-4.572Z" transform="translate(-269.05 -285.102)" fill="#ffc529" fill-rule="evenodd"/>
</svg>
